<mxfile host="app.diagrams.net" modified="2023-07-03T07:56:25.231Z" agent="Mozilla/5.0 (Macintosh; Intel Mac OS X 10.15; rv:109.0) Gecko/20100101 Firefox/114.0" version="21.5.2" etag="_jO4GpBlRi4_GqLwypXy" type="github">
  <diagram name="Page-1" id="tgEEYd0EVzEpxeEqGKXm">
    <mxGraphModel>
      <root>
        <mxCell id="0" />
        <mxCell id="1" parent="0" />
      </root>
    </mxGraphModel>
  </diagram>
</mxfile>
